name C:\Users\r0593348\3dpredictsim\Results\batch_windlass\Pog_s1_tmt_bCst_d00_k1500_WL40_ig24_act_TTC.mot
datacolumns 128
datarows 4
range 1.20511704 1.24127055
endheader
time	pelvis_tilt	pelvis_list	pelvis_rotation	pelvis_tx	pelvis_ty	pelvis_tz	hip_flexion_l	hip_adduction_l	hip_rotation_l	hip_flexion_r	hip_adduction_r	hip_rotation_r	knee_angle_l	knee_angle_r	ankle_angle_l	ankle_angle_r	subtalar_angle_l	subtalar_angle_r	tmt_angle_l	tmt_angle_r	mtp_angle_l	mtp_angle_r	lumbar_extension	lumbar_bending	lumbar_rotation	arm_flex_l	arm_add_l	arm_rot_l	arm_flex_r	arm_add_r	arm_rot_r	elbow_flex_l	elbow_flex_r	pro_sup_l	pro_sup_r	glut_med1_l/activation	glut_med2_l/activation	glut_med3_l/activation	glut_min1_l/activation	glut_min2_l/activation	glut_min3_l/activation	semimem_l/activation	semiten_l/activation	bifemlh_l/activation	bifemsh_l/activation	sar_l/activation	add_long_l/activation	add_brev_l/activation	add_mag1_l/activation	add_mag2_l/activation	add_mag3_l/activation	tfl_l/activation	pect_l/activation	grac_l/activation	glut_max1_l/activation	glut_max2_l/activation	glut_max3_l/activation	iliacus_l/activation	psoas_l/activation	quad_fem_l/activation	gem_l/activation	peri_l/activation	rect_fem_l/activation	vas_med_l/activation	vas_int_l/activation	vas_lat_l/activation	med_gas_l/activation	lat_gas_l/activation	soleus_l/activation	tib_post_l/activation	flex_dig_l/activation	flex_hal_l/activation	tib_ant_l/activation	per_brev_l/activation	per_long_l/activation	per_tert_l/activation	ext_dig_l/activation	ext_hal_l/activation	ercspn_l/activation	intobl_l/activation	extobl_l/activation	glut_med1_r/activation	glut_med2_r/activation	glut_med3_r/activation	glut_min1_r/activation	glut_min2_r/activation	glut_min3_r/activation	semimem_r/activation	semiten_r/activation	bifemlh_r/activation	bifemsh_r/activation	sar_r/activation	add_long_r/activation	add_brev_r/activation	add_mag1_r/activation	add_mag2_r/activation	add_mag3_r/activation	tfl_r/activation	pect_r/activation	grac_r/activation	glut_max1_r/activation	glut_max2_r/activation	glut_max3_r/activation	iliacus_r/activation	psoas_r/activation	quad_fem_r/activation	gem_r/activation	peri_r/activation	rect_fem_r/activation	vas_med_r/activation	vas_int_r/activation	vas_lat_r/activation	med_gas_r/activation	lat_gas_r/activation	soleus_r/activation	tib_post_r/activation	flex_dig_r/activation	flex_hal_r/activation	tib_ant_r/activation	per_brev_r/activation	per_long_r/activation	per_tert_r/activation	ext_dig_r/activation	ext_hal_r/activation	ercspn_r/activation	intobl_r/activation	extobl_r/activation	
          1.20511704	         -2.92832397	         -0.79243980	          7.41583120	          1.50639630	          0.86275127	         -0.00129753	        -15.50784655	         -1.90458693	          8.65911350	         32.17468524	          0.64194013	          0.36293036	        -15.68151874	        -17.49877446	         -6.65388120	          9.56698791	         18.30596063	          3.60490254	        -15.00000000	         -0.55771147	         35.00863814	          1.16959485	          0.24034604	         -1.30845214	         -2.86545904	          3.11684425	        -13.52893768	         17.58034559	        -14.20552383	        -13.64559029	          9.97080370	         44.22712465	         18.73414460	         86.51662706	         86.51662706	          0.18702014	          0.07075738	          0.05000008	          0.21295558	          0.13470870	          0.07653907	          0.05000131	          0.05000017	          0.05000018	          0.05000007	          0.07210560	          0.12334344	          0.07959117	          0.07381683	          0.05000556	          0.06004220	          0.15539381	          0.05000100	          0.05000027	          0.05000224	          0.05000200	          0.05000289	          0.22626456	          0.44852852	          0.05000019	          0.05000059	          0.05000022	          0.12485872	          0.09375564	          0.10163706	          0.09163534	          0.13202810	          0.17779578	          0.05000000	          0.10678914	          0.11594403	          0.13146839	          0.34293227	          0.44236307	          0.33181720	          0.70027119	          0.48567099	          0.22784450	          0.05000000	          0.05782356	          0.05000024	          0.08050369	          0.05284577	          0.05000017	          0.05000021	          0.05000029	          0.05000205	          0.06004275	          0.06004300	          0.10352022	          0.06004224	          0.05000037	          0.05879399	          0.09740657	          0.16590342	          0.15736590	          0.11917803	          0.05000069	          0.05000117	          0.06004556	          0.06004292	          0.07187766	          0.10881595	          0.05754562	          0.06003796	          0.18499306	          0.05000030	          0.05787267	          0.05000019	          0.08855724	          0.10338696	          0.07801206	          0.06004265	          0.06004266	          0.06391129	          0.06004266	          0.07212679	          0.07162687	          0.49906898	          0.25855342	          0.19950176	          0.09803120	          0.57753184	          0.32020188	          0.05000002	          0.10397436	          0.10042595	
          1.21716821	         -2.91908935	         -0.72017883	          7.52409490	          1.52574827	          0.86146974	         -0.00096885	        -15.56045536	         -2.02621671	          8.39764571	         31.43711552	          0.88056934	          0.56354822	        -17.24680148	        -17.00591044	         -8.95805513	          9.02287925	         18.71091635	          3.27534770	        -14.73088914	         -0.69694570	         34.11178781	          1.45940397	          0.48120535	         -1.12429686	         -2.95709995	          2.61795664	        -13.59531225	         17.77576913	        -15.53360142	        -13.64037556	          9.92064967	         45.38007094	         18.69185684	         86.51662706	         86.51662706	          0.15573946	          0.05892280	          0.05800423	          0.17733699	          0.11217756	          0.07210174	          0.05000180	          0.05000026	          0.05000025	          0.05000050	          0.06004542	          0.15303086	          0.23453561	          0.11179186	          0.05000756	          0.05000029	          0.12940290	          0.08199552	          0.06004319	          0.05000143	          0.05000095	          0.05000074	          0.18841991	          0.37574862	          0.08633386	          0.05728181	          0.07210156	          0.10397504	          0.07807425	          0.08463743	          0.07630858	          0.10994528	          0.14805793	          0.05000000	          0.08892775	          0.09655145	          0.10947920	          0.44145222	          0.38814492	          0.30308938	          0.80573257	          0.60570302	          0.29360652	          0.06311381	          0.06064347	          0.05357106	          0.10401025	          0.05311396	          0.26117410	          0.06004281	          0.06004265	          0.05000099	          0.05000011	          0.05000034	          0.08620564	          0.05000005	          0.05000027	          0.08658441	          0.18006025	          0.27919768	          0.22391100	          0.15058685	          0.05000013	          0.07845642	          0.05000262	          0.05000030	          0.05985555	          0.15815701	          0.05196503	          0.05000058	          0.15405145	          0.14993751	          0.20168921	          0.07210250	          0.23987638	          0.23393601	          0.20035601	          0.05000001	          0.05000003	          0.05322159	          0.05000003	          0.06006305	          0.05964674	          0.71115296	          0.31357082	          0.16613373	          0.49985402	          0.69486369	          0.53168128	          0.05000001	          0.08658377	          0.08362886	
          1.22921938	         -2.90265359	         -0.65845143	          7.59774058	          1.54516652	          0.85955616	         -0.00065637	        -15.41600118	         -2.10725095	          8.14873511	         30.59531217	          1.12807323	          0.82874928	        -19.31760051	        -17.20001712	        -10.74230797	          8.25753715	         19.01109646	          2.93454329	        -13.70663663	         -0.93145262	         31.37473500	          1.79378092	          0.71902610	         -0.91632803	         -3.03100626	          2.07676527	        -13.67436739	         17.89334788	        -16.78408841	        -13.65355387	          9.99726867	         46.52404318	         18.51527391	         86.51662706	         86.51662706	          0.12969074	          0.06004268	          0.06004268	          0.14767591	          0.09341495	          0.06004236	          0.05000050	          0.05000005	          0.05000022	          0.05000001	          0.05000239	          0.15150815	          0.35383636	          0.21636337	          0.11656591	          0.12485824	          0.10775918	          0.06828138	          0.05000068	          0.06004284	          0.06004287	          0.06004328	          0.15690509	          0.33178732	          0.07189397	          0.06004299	          0.06004203	          0.08658433	          0.07210268	          0.07210273	          0.07210247	          0.09155600	          0.12329399	          0.05507609	          0.07405383	          0.08040245	          0.09116790	          0.57594697	          0.39817765	          0.29073130	          0.67096698	          0.70683658	          0.24449835	          0.08676246	          0.06004263	          0.05000080	          0.23538038	          0.05000006	          0.21749092	          0.05000019	          0.05000011	          0.05000012	          0.05000008	          0.05000004	          0.07178713	          0.05000002	          0.05000017	          0.07210250	          0.14994371	          0.24349436	          0.23482742	          0.15968746	          0.05000027	          0.06587076	          0.05000028	          0.17954993	          0.16113880	          0.16022338	          0.05000011	          0.05000011	          0.27130330	          0.12485924	          0.16795509	          0.06004277	          0.28723344	          0.27998571	          0.24102325	          0.05233139	          0.05000491	          0.06004257	          0.05000003	          0.05001911	          0.05000392	          0.62351871	          0.33980121	          0.17167615	          0.61746501	          0.67741572	          0.44275312	          0.05000001	          0.07210190	          0.06964123	
          1.24127055	         -2.88039861	         -0.61266555	          7.63246725	          1.56449073	          0.85722208	         -0.00034672	        -15.05785311	         -2.15667679	          7.92998356	         29.61852087	          1.37148876	          1.12382070	        -21.88255391	        -17.75135919	        -12.10592185	          7.88980001	         19.24084341	          2.55482626	        -11.96747944	         -1.63980119	         26.96650245	          1.91268977	          0.94586591	         -0.68420490	         -3.08735743	          1.52553122	        -13.75263700	         17.94240739	        -17.90964464	        -13.67956066	         10.21775124	         47.60212666	         18.17127052	         86.51662706	         86.51662706	          0.21838822	          0.05000008	          0.05000005	          0.18637432	          0.07779056	          0.05000016	          0.06341797	          0.05000082	          0.05000061	          0.05000033	          0.06004258	          0.13183867	          0.29465441	          0.18017483	          0.09706944	          0.10397470	          0.08973557	          0.06004821	          0.05000073	          0.05000053	          0.05000035	          0.05000059	          0.13066142	          0.33398644	          0.05986911	          0.05000039	          0.05000006	          0.07210237	          0.06004290	          0.06004294	          0.06004272	          0.07624249	          0.10267203	          0.05000000	          0.06166771	          0.06695454	          0.07591932	          0.47961516	          0.33157911	          0.24210406	          0.57621629	          0.83743950	          0.58107028	          0.11674932	          0.05000000	          0.05000002	          0.34511764	          0.35693293	          0.49467054	          0.20976802	          0.16837514	          0.34241142	          0.07210254	          0.10397598	          0.08258996	          0.07210239	          0.06003892	          0.06004277	          0.12486437	          0.20276795	          0.19555110	          0.17886965	          0.05000009	          0.05485375	          0.08658445	          0.28801547	          0.22238046	          0.18456866	          0.05000024	          0.05000012	          0.22592558	          0.10397558	          0.29128694	          0.05000011	          0.23919146	          0.27720053	          0.22319644	          0.05000000	          0.05000001	          0.05000000	          0.05000000	          0.05000007	          0.05000006	          0.79123936	          0.28296659	          0.14296187	          0.78788253	          0.78817792	          0.66685145	          0.06088301	          0.06004273	          0.05799315	
